<?xml version="1.0" encoding="utf-8"?>
<!-- Generator: Adobe Illustrator 26.0.2, SVG Export Plug-In . SVG Version: 6.00 Build 0)  -->
<svg version="1.1" id="Layer_1" xmlns="http://www.w3.org/2000/svg" xmlns:xlink="http://www.w3.org/1999/xlink" x="0px" y="0px"
	 viewBox="0 0 512 512" enable-background="new 0 0 512 512" xml:space="preserve">
<g>
	<path fill="#0078A8" d="M352.3,404.1l-39.2-39.2c-7.5-7.5-17.6-11.7-28.3-11.7c-10.7,0-20.7,4.2-28.3,11.7l-7.2,7.2
		c-5.5,5.5-12.3,8.2-20.8,8.2c0,0,0,0,0,0c-31.4,0-75.9-36.1-91.7-74.2c-5.4-13-9.2-31.1,3-43.4l7.2-7.2
		c7.6-7.6,11.7-17.6,11.7-28.3c0-10.7-4.2-20.7-11.7-28.3l-39.3-39.2c-7.5-7.5-17.6-11.7-28.2-11.7c-10.7,0-20.7,4.2-28.3,11.7
		l-19.6,19.6C-3.6,214.7-9.6,266.4,14.6,325c18.9,45.6,55.1,92.2,99.5,128.1c47,38,96.6,58.9,139.7,58.9h0
		c31.2,0,57.7-10.7,78.8-31.8l19.6-19.6c7.5-7.5,11.7-17.6,11.7-28.3C364,421.7,359.8,411.7,352.3,404.1L352.3,404.1z"/>
	<path fill="#005F90" d="M313.1,364.9c-7.5-7.5-17.6-11.7-28.3-11.7c-10.7,0-20.7,4.2-28.3,11.7l-7.2,7.2
		c-5.5,5.5-12.3,8.2-20.8,8.2c0,0,0,0,0,0c-19.3,0-43.7-13.7-63.2-33.2l-80.1,80.1c9.1,9.1,18.8,17.8,28.8,25.9
		c47,38,96.6,58.9,139.7,58.9h0c31.2,0,57.7-10.7,78.8-31.8l19.6-19.6c7.5-7.5,11.7-17.6,11.7-28.3c0-10.7-4.2-20.7-11.7-28.3
		L313.1,364.9z"/>
</g>
<circle fill="#3FB23B" cx="367.9" cy="145.1" r="144.6"/>
<line fill="none" stroke="#FFFFFF" stroke-width="60" stroke-linecap="round" stroke-miterlimit="10" x1="367.9" y1="72.5" x2="367.9" y2="212.3"/>
<g>
	
		<line fill="none" stroke="#FFFFFF" stroke-width="55" stroke-linecap="round" stroke-miterlimit="10" x1="430.3" y1="154.3" x2="367.9" y2="215.8"/>
	
		<line fill="none" stroke="#FFFFFF" stroke-width="55" stroke-linecap="round" stroke-miterlimit="10" x1="305.5" y1="154.3" x2="367.9" y2="215.8"/>
</g>
</svg>
